<?xml version="1.0" encoding="UTF-8"?>
<svg id="Ebene_2" data-name="Ebene 2" xmlns="http://www.w3.org/2000/svg" xmlns:xlink="http://www.w3.org/1999/xlink" viewBox="0 0 63.42 63.42">
  <defs>
    <style>
      .cls-1 {
        fill: #04c;
      }

      .cls-2, .cls-3 {
        fill: #fff;
      }

      .cls-4, .cls-5, .cls-6 {
        stroke-width: .08px;
      }

      .cls-4, .cls-5, .cls-6, .cls-3 {
        stroke: #65140e;
      }

      .cls-4, .cls-6 {
        stroke-linecap: round;
        stroke-linejoin: round;
      }

      .cls-4, .cls-7, .cls-8 {
        fill: none;
      }

      .cls-5, .cls-6 {
        fill: #ffea00;
      }

      .cls-9 {
        clip-path: url(#clippath);
      }

      .cls-7 {
        stroke: #a5a7aa;
        stroke-miterlimit: 10;
        stroke-width: 1.85px;
      }

      .cls-3 {
        stroke-width: .09px;
      }

      .cls-10 {
        fill: #008034;
      }

      .cls-11 {
        fill: #ff1500;
      }

      .cls-12 {
        fill: #65140e;
      }

      .cls-13 {
        fill: #ff0;
      }
    </style>
    <clipPath id="clippath">
      <circle class="cls-8" cx="31.71" cy="31.71" r="30.79" transform="translate(-9.72 14.55) rotate(-22.5)"/>
    </clipPath>
  </defs>
  <g id="Portugal">
    <g>
      <circle class="cls-7" cx="31.71" cy="31.71" r="30.79" transform="translate(-9.72 14.55) rotate(-22.5)"/>
      <g class="cls-9">
        <g>
          <g id="path1339">
            <g id="path1339-2" data-name="path1339">
              <polygon class="cls-11" points="-14.33 62.5 78.02 62.5 78.02 .93 -14.33 .93 -14.33 46.27 -14.33 62.5"/>
            </g>
          </g>
          <path id="path1341" class="cls-10" d="M-14.33,62.5H22.61V.93H-14.33V62.5Z"/>
          <g>
            <g>
              <path id="path1355" class="cls-6" d="M7.36,32.58c2.86,1.54,9.22,2.32,15.24,2.37,5.48,0,12.61-.85,15.28-2.26l-.08-1.54c-.83,1.31-8.48,2.56-15.27,2.51-6.79-.05-13.09-1.1-15.19-2.45v1.38"/>
              <path id="path1357" class="cls-6" d="M38.02,32.36v.37c-.4,.48-2.92,1.2-6.07,1.71-2.4,.37-5.53,.65-9.43,.65s-6.66-.27-8.95-.62c-3.62-.53-5.94-1.45-6.4-1.73v-.43c1.4,.93,5.18,1.61,6.45,1.82,2.28,.35,5.21,.61,8.9,.61,3.88,0,7-.28,9.38-.64,2.26-.33,5.49-1.18,6.12-1.74h0Zm0-1.31v.37c-.4,.48-2.91,1.2-6.07,1.71-2.4,.37-5.53,.64-9.43,.64s-6.66-.26-8.95-.62c-3.62-.53-5.94-1.45-6.4-1.73v-.43c1.4,.93,5.18,1.61,6.45,1.82,2.28,.35,5.22,.61,8.9,.61,3.88,0,6.99-.28,9.38-.64,2.26-.33,5.49-1.18,6.12-1.74"/>
              <path id="path1359" class="cls-6" d="M38.02,32.36v.37c-.4,.48-2.92,1.2-6.07,1.71-2.4,.37-5.53,.65-9.43,.65s-6.66-.27-8.95-.62c-3.62-.53-5.94-1.45-6.4-1.73v-.43c1.4,.93,5.18,1.61,6.45,1.82,2.28,.35,5.21,.61,8.9,.61,3.88,0,7-.28,9.38-.64,2.26-.33,5.49-1.18,6.12-1.74h0Zm0-1.31v.37c-.4,.48-2.91,1.2-6.07,1.72-2.4,.37-5.53,.64-9.43,.64s-6.66-.26-8.95-.62c-3.62-.53-5.94-1.45-6.4-1.73v-.43c1.4,.93,5.18,1.61,6.45,1.82,2.28,.35,5.22,.61,8.9,.61,3.88,0,6.99-.28,9.38-.64,2.26-.33,5.49-1.18,6.12-1.74h0Z"/>
              <path id="path1343" class="cls-6" d="M34.65,41.26c-4.65-.14-25.97-13.45-26.12-15.57l1.18-1.96c2.12,3.07,23.91,16.02,26.05,15.56l-1.11,1.97"/>
              <path id="path1347" class="cls-6" d="M9.46,23.46c-.42,1.12,5.57,4.82,12.76,9.2,7.2,4.38,13.4,7.08,13.86,6.69,.03-.05,.23-.39,.21-.39-.09,.13-.3,.17-.62,.08-1.95-.56-7.01-2.89-13.3-6.7-6.28-3.81-11.74-7.32-12.59-8.81-.06-.1-.1-.29-.09-.44h-.02s-.18,.32-.18,.32l-.03,.05h0Zm25.3,17.86c-.08,.14-.22,.15-.51,.12-1.74-.19-7.01-2.76-13.26-6.5-7.27-4.35-13.27-8.31-12.62-9.35l.18-.31h.04c-.58,1.77,11.84,8.88,12.58,9.33,7.19,4.45,13.26,7.06,13.79,6.38l-.19,.34h0Z"/>
              <path id="path1361" class="cls-6" d="M22.58,41c-6.58-.04-12.22-1.79-13.41-2.08l.87,1.36c2.1,.89,7.61,2.21,12.61,2.06,5-.15,9.38-.53,12.46-2.03l.89-1.41c-2.1,.99-9.24,2.1-13.41,2.11"/>
              <path id="path1363" class="cls-6" d="M35.43,39.98c-.13,.2-.26,.4-.4,.59-1.45,.51-3.74,1.05-4.71,1.21-1.97,.41-5.02,.71-7.74,.71-5.83-.08-10.61-1.23-12.85-2.2l-.18-.31,.03-.05,.31,.12c3.99,1.43,8.48,2,12.73,2.1,2.7,0,5.4-.31,7.59-.7,3.35-.67,4.7-1.18,5.12-1.41l.1-.06h0Zm.77-1.27s0,0,0,.01c-.1,.17-.2,.33-.3,.5-.78,.28-2.88,.89-5.95,1.32-2.02,.28-3.28,.54-7.31,.62-7.54-.19-12.43-1.67-13.59-2.03l-.17-.33c4.37,1.14,8.84,1.94,13.76,2.02,3.68-.08,5.25-.35,7.26-.62,3.58-.56,5.39-1.15,5.93-1.32,0,0-.01-.02-.03-.03l.39-.14"/>
              <path id="path1365" class="cls-6" d="M35.43,39.98c-.13,.2-.26,.4-.4,.59-1.45,.51-3.74,1.05-4.71,1.21-1.97,.41-5.02,.71-7.74,.71-5.83-.08-10.61-1.23-12.85-2.2l-.18-.31,.03-.05,.31,.12c3.99,1.43,8.48,2,12.73,2.1,2.7,0,5.4-.31,7.59-.7,3.35-.67,4.7-1.18,5.12-1.41l.1-.06h0Zm.77-1.27s0,0,.01,.01c-.1,.17-.2,.33-.3,.5-.78,.28-2.88,.89-5.95,1.32-2.02,.28-3.28,.54-7.31,.62-7.54-.19-12.43-1.67-13.59-2.03l-.17-.33c4.37,1.14,8.84,1.94,13.76,2.02,3.68-.08,5.25-.35,7.26-.62,3.58-.56,5.39-1.15,5.93-1.32,0,0-.01-.02-.03-.03l.39-.14h0Z"/>
              <path class="cls-6" d="M36.34,25.02l-.71-1.16c-.84,.46-2.38,.86-4.28,1.17v1.25c1.91-.31,3.65-.73,5-1.26Z"/>
              <g>
                <path class="cls-6" d="M35.92,23.87l-.24-.38c-.23,.18-1.67,.87-4.34,1.32v.35c2.69-.47,4.25-1.03,4.57-1.29Z"/>
                <path class="cls-6" d="M36.3,24.65c-.24,.3-1.91,.94-4.96,1.46v.36c3.03-.54,5.08-1.25,5.19-1.43h0l-.23-.4Z"/>
              </g>
              <path class="cls-6" d="M22.6,16.48c-8.39,0-15.24,6.85-15.24,15.24s6.85,15.24,15.24,15.24,15.24-6.84,15.24-15.24-6.85-15.24-15.24-15.24Zm.01,28.85c-7.47,0-13.63-6.13-13.63-13.63s6.15-13.63,13.63-13.63c3.62,0,6.94,1.44,9.39,3.79,2.6,2.48,4.23,5.98,4.23,9.84,0,7.49-6.15,13.63-13.62,13.63Z"/>
              <path class="cls-6" d="M22.6,16.82c-8.17,0-14.9,6.71-14.9,14.91s6.73,14.91,14.9,14.91,14.91-6.71,14.91-14.91-6.73-14.91-14.91-14.91Zm.01,28.85c-7.66,0-13.96-6.28-13.96-13.96s6.31-13.96,13.96-13.96c3.82,0,7.31,1.57,9.84,4.09,2.54,2.53,4.12,6.02,4.12,9.87,0,7.68-6.31,13.96-13.96,13.96Z"/>
              <path id="path1377" class="cls-6" d="M23.09,16.25v.17h-.96v-.16h-.33v30.97h.33v-.14h.97v.15h.33V16.25h-.34Z"/>
              <line class="cls-4" x1="22.13" y1="16.42" x2="22.13" y2="47.08"/>
              <line class="cls-4" x1="23.09" y1="16.42" x2="23.09" y2="47.08"/>
              <path id="path1397" class="cls-6" d="M22.53,21.39c5.67-.03,10.62,.79,12.88,1.95l.82,1.43c-1.97-1.06-7.3-2.16-13.7-2-5.21,.03-10.78,.57-13.57,2.06l.99-1.65c2.29-1.19,7.7-1.79,12.58-1.8"/>
              <path id="path1401" class="cls-6" d="M22.61,22.57c3.23,0,6.36,.17,8.84,.62,2.32,.43,4.52,1.08,4.84,1.43l.25,.43c-.77-.5-2.68-1.06-5.13-1.52-2.46-.46-5.59-.62-8.8-.61-3.65-.01-6.49,.18-8.92,.6-2.57,.48-4.36,1.17-4.8,1.5l.24-.46c.86-.44,2.21-.96,4.5-1.38,2.52-.46,5.38-.6,8.99-.62h0Zm0-1.31c3.1,0,6.15,.16,8.54,.59,1.88,.37,3.74,.94,4.42,1.45l.36,.57c-.61-.68-2.9-1.32-4.92-1.68-2.36-.41-5.29-.57-8.39-.6-3.25,0-6.25,.21-8.58,.63-2.22,.42-3.66,.92-4.26,1.31l.31-.47c.84-.44,2.19-.85,3.89-1.18,2.35-.43,5.37-.62,8.63-.63"/>
              <path id="path1419" class="cls-6" d="M9.82,23.17c4.68-.06,26.3,13.21,26.37,15.66l-1.34,2.05c-.6-2.84-22.54-15.76-26.16-15.51l1.13-2.2"/>
              <path id="path1425" class="cls-6" d="M8.55,25.29c.87-.59,7.26,2.26,13.94,6.28,6.66,4.04,13.04,8.61,12.46,9.46l-.19,.3-.09,.07s.12-.13-.01-.45c-.28-.93-4.8-4.54-12.3-9.07-7.31-4.36-13.4-6.98-14.01-6.23l.19-.37h0Zm27.77,13.69c.55-1.08-5.38-5.55-12.72-9.89-7.51-4.26-12.93-6.76-13.92-6.02l-.22,.4s0-.03,.05-.06c.18-.16,.48-.15,.61-.15,1.7,.03,6.57,2.27,13.39,6.18,2.99,1.74,12.63,7.93,12.59,9.67,0,.15,.01,.18-.04,.25l.25-.37"/>
              <path id="path1387" class="cls-6" d="M7.3,31.08c1.91-1.76,8.96-2.9,15.22-2.87,6.26,.03,13.66,1.32,15.28,2.83v1.31c-1.34-1.27-7.09-2.78-15.27-2.8-8.17-.02-14.11,1.54-15.23,2.84v-1.31"/>
              <path id="path1393" class="cls-6" d="M22.6,29.37c3.6,0,7.09,.34,9.86,.88,2.86,.57,4.87,1.29,5.56,2.09v.4c-.83-1-3.54-1.73-5.62-2.15-2.75-.54-6.22-.88-9.8-.87-3.78,0-7.3,.36-10,.89-2.17,.43-5.07,1.29-5.43,2.13v-.41c.2-.58,2.36-1.46,5.38-2.06,2.73-.53,6.25-.88,10.05-.89h0Zm0-1.31c3.6,0,7.09,.34,9.86,.88,2.86,.57,4.87,1.29,5.56,2.09v.4c-.83-1-3.53-1.73-5.62-2.15-2.75-.53-6.22-.88-9.8-.87-3.78,0-7.28,.36-9.98,.89-2.1,.4-5.12,1.29-5.45,2.13v-.41c.2-.58,2.4-1.49,5.39-2.07,2.73-.53,6.25-.88,10.05-.89"/>
              <path id="path1405" class="cls-6" d="M30.18,38.06c-2.8-.52-5.61-.6-7.58-.57-9.45,.11-12.5,1.94-12.88,2.49l-.71-1.15c2.41-1.75,7.55-2.72,13.63-2.62,3.16,.05,5.88,.26,8.18,.71l-.65,1.15"/>
              <path id="path1411" class="cls-6" d="M22.55,37.32c2.63,.04,5.21,.15,7.7,.61l-.18,.32c-2.31-.43-4.78-.59-7.51-.58-3.49-.03-7.01,.3-10.09,1.18-.97,.27-2.57,.89-2.74,1.41l-.18-.3c.05-.31,1.02-.94,2.83-1.45,3.52-1.01,6.81-1.18,10.16-1.2h0s0,0,0,0Zm.12-1.32c2.73,.05,5.54,.18,8.27,.72l-.19,.33c-2.47-.49-4.83-.65-8.06-.7-3.5,0-7.21,.26-10.59,1.24-1.09,.32-2.97,1-3.03,1.55l-.18-.32c.04-.49,1.67-1.14,3.13-1.56,3.4-.99,7.12-1.24,10.65-1.25h0Z"/>
            </g>
            <g>
              <path id="path1431" class="cls-3" d="M13.47,33.41c0,2.5,1.02,4.77,2.69,6.42,1.66,1.66,3.92,2.71,6.43,2.71s4.81-1.03,6.47-2.68c1.66-1.65,2.69-3.93,2.69-6.45v-12.19H13.47v12.18h0Z"/>
              <g>
                <path class="cls-11" d="M22.58,42.11c-2.31,0-4.5-.91-6.16-2.56-1.66-1.65-2.57-3.83-2.57-6.12v-11.82s17.49,.05,17.49,.05l-.05,11.78c0,2.31-.91,4.49-2.56,6.13-1.65,1.64-3.84,2.55-6.16,2.55Zm-5.26-8.67c0,1.38,.57,2.74,1.56,3.72,1.01,1.01,2.33,1.57,3.7,1.57s2.74-.55,3.74-1.54c.85-.85,1.38-1.91,1.51-3.06,.03-.21,.04-.45,.04-.66v-8.32s-10.54-.07-10.54-.07v8.36Z"/>
                <path class="cls-12" d="M13.91,21.7H31.25v11.73c0,2.3-.9,4.46-2.54,6.1-1.64,1.63-3.82,2.53-6.13,2.53s-4.47-.9-6.13-2.55c-1.65-1.64-2.55-3.8-2.55-6.1v-11.72m8.67,17.08c1.42,0,2.76-.55,3.77-1.56,.86-.86,1.39-1.93,1.52-3.09,.02-.19,.04-.43,.04-.66v-8.32s0-.09,0-.09h-.09s-10.46-.02-10.46-.02h-.09s0,.09,0,.09v8.32c0,1.39,.58,2.76,1.57,3.75,1.02,1.02,2.35,1.58,3.73,1.58M13.82,21.61v11.81s-.01,0-.01,0c0,2.4,.99,4.58,2.58,6.16,1.6,1.59,3.79,2.57,6.19,2.57s4.6-.98,6.19-2.56c1.58-1.58,2.57-3.76,2.57-6.17v-11.82H13.82Zm8.75,17.07c-1.43,0-2.71-.6-3.67-1.55-.98-.97-1.54-2.31-1.54-3.69v-8.32s10.45,.02,10.45,.02h0s0,8.32,0,8.32c0,.21-.01,.45-.04,.65-.14,1.19-.69,2.23-1.5,3.03-.95,.94-2.26,1.53-3.7,1.53h0Z"/>
              </g>
              <g>
                <path id="path1485" class="cls-1" d="M21.48,28.08h0c0,.34,.13,.65,.34,.88,.21,.23,.5,.37,.82,.37s.61-.14,.82-.36c.21-.22,.34-.53,.34-.88v-1.66h-2.31s0,1.65,0,1.65"/>
                <path id="use5944" class="cls-2" d="M22.01,26.82c-.13,0-.23,.1-.23,.23s.1,.23,.23,.23,.23-.1,.23-.23-.1-.23-.23-.23"/>
                <path id="use5944-2" data-name="use5944" class="cls-2" d="M23.26,26.82c-.13,0-.23,.1-.23,.23s.1,.23,.23,.23,.23-.1,.23-.23-.1-.23-.23-.23"/>
                <path id="use5944-3" data-name="use5944" class="cls-2" d="M22.62,27.44c-.13,0-.23,.1-.23,.23s.1,.23,.23,.23,.23-.1,.23-.23-.1-.23-.23-.23"/>
                <path id="use5944-4" data-name="use5944" class="cls-2" d="M23.26,28.08c-.13,0-.23,.1-.23,.23s.1,.23,.23,.23,.23-.1,.23-.23-.1-.23-.23-.23"/>
                <path id="use5944-5" data-name="use5944" class="cls-2" d="M22.01,28.08c-.13,0-.23,.1-.23,.23s.1,.23,.23,.23,.23-.1,.23-.23-.1-.23-.23-.23"/>
              </g>
              <g>
                <g id="use3438">
                  <path id="path1485-2" data-name="path1485" class="cls-1" d="M21.48,32.08h0c0,.34,.13,.65,.34,.88,.21,.23,.5,.37,.82,.37s.61-.14,.82-.36c.21-.22,.34-.53,.34-.88v-1.66h-2.31s0,1.66,0,1.66"/>
                </g>
                <g id="use5954">
                  <path id="use5944-6" data-name="use5944" class="cls-2" d="M23.29,32.08c-.13,0-.23,.1-.23,.23s.1,.23,.23,.23,.23-.1,.23-.23-.1-.23-.23-.23"/>
                </g>
                <path id="use5944-7" data-name="use5944" class="cls-2" d="M22.01,32.08c-.13,0-.23,.1-.23,.23s.1,.23,.23,.23,.23-.1,.23-.23-.1-.23-.23-.23"/>
                <path id="use5944-8" data-name="use5944" class="cls-2" d="M22.65,31.44c-.13,0-.23,.1-.23,.23s.1,.23,.23,.23,.23-.1,.23-.23-.1-.23-.23-.23"/>
                <path id="use5944-9" data-name="use5944" class="cls-2" d="M23.29,30.83c-.13,0-.23,.1-.23,.23s.1,.23,.23,.23,.23-.1,.23-.23-.1-.23-.23-.23"/>
                <path id="use5944-10" data-name="use5944" class="cls-2" d="M22.01,30.83c-.13,0-.23,.1-.23,.23s.1,.23,.23,.23,.23-.1,.23-.23-.1-.23-.23-.23"/>
              </g>
              <g>
                <g id="use3436">
                  <path id="path1485-3" data-name="path1485" class="cls-1" d="M24.67,32.09h0c0,.34,.13,.65,.34,.88,.21,.23,.5,.37,.82,.37s.61-.14,.82-.36c.21-.23,.34-.54,.34-.88v-1.66h-2.31s0,1.65,0,1.65"/>
                </g>
                <path id="use5944-11" data-name="use5944" class="cls-2" d="M26.48,32.09c-.12,0-.23,.1-.23,.23s.1,.23,.23,.23,.23-.1,.23-.23-.1-.23-.23-.23"/>
                <g id="use5946">
                  <path id="use5944-12" data-name="use5944" class="cls-2" d="M25.23,32.09c-.13,0-.23,.1-.23,.23s.1,.23,.23,.23,.23-.1,.23-.23-.1-.23-.23-.23"/>
                </g>
                <g id="use5948">
                  <path id="use5944-13" data-name="use5944" class="cls-2" d="M25.84,31.45c-.13,0-.23,.1-.23,.23s.1,.23,.23,.23,.23-.1,.23-.23-.1-.23-.23-.23"/>
                </g>
                <g id="use5950">
                  <path id="use5944-14" data-name="use5944" class="cls-2" d="M26.48,30.83c-.13,0-.23,.1-.23,.23s.1,.23,.23,.23,.23-.1,.23-.23-.1-.23-.23-.23"/>
                </g>
                <g id="use5952">
                  <path id="use5944-15" data-name="use5944" class="cls-2" d="M25.23,30.83c-.13,0-.23,.1-.23,.23s.1,.23,.23,.23,.23-.1,.23-.23-.1-.23-.23-.23"/>
                </g>
              </g>
              <g>
                <g id="use3434">
                  <path id="path1485-4" data-name="path1485" class="cls-1" d="M21.47,36.05h0c0,.34,.13,.65,.34,.88,.21,.23,.5,.36,.82,.36s.61-.14,.82-.36c.21-.22,.34-.53,.34-.88v-1.66h-2.31s0,1.66,0,1.66"/>
                </g>
                <g id="use6358">
                  <path id="use5944-16" data-name="use5944" class="cls-2" d="M23.27,36.05c-.13,0-.23,.1-.23,.23s.1,.23,.23,.23,.23-.1,.23-.23-.1-.23-.23-.23"/>
                </g>
                <g id="use6360">
                  <path id="use5944-17" data-name="use5944" class="cls-2" d="M22.01,36.05c-.13,0-.23,.1-.23,.23s.1,.23,.23,.23,.23-.1,.23-.23-.1-.23-.23-.23"/>
                </g>
                <g id="use6356">
                  <path id="use5944-18" data-name="use5944" class="cls-2" d="M22.63,35.41c-.12,0-.23,.1-.23,.23s.1,.23,.23,.23,.23-.1,.23-.23-.1-.23-.23-.23"/>
                </g>
                <g id="use6352">
                  <path id="use5944-19" data-name="use5944" class="cls-2" d="M23.27,34.8c-.13,0-.23,.1-.23,.23s.1,.23,.23,.23,.23-.1,.23-.23-.1-.23-.23-.23"/>
                </g>
                <path id="use5944-20" data-name="use5944" class="cls-2" d="M22.01,34.79c-.13,0-.23,.1-.23,.23s.1,.23,.23,.23,.23-.1,.23-.23-.1-.23-.23-.23"/>
              </g>
              <g>
                <g id="use3440">
                  <path id="path1485-5" data-name="path1485" class="cls-1" d="M18.27,32.09h0c0,.34,.13,.65,.34,.88,.21,.23,.5,.37,.82,.37s.61-.14,.82-.36c.21-.22,.34-.53,.34-.88v-1.66h-2.31v1.66"/>
                </g>
                <g>
                  <path id="use5944-21" data-name="use5944" class="cls-2" d="M20.08,32.09c-.13,0-.23,.1-.23,.23s.1,.23,.23,.23,.23-.1,.23-.23-.1-.23-.23-.23"/>
                  <path id="use5944-22" data-name="use5944" class="cls-2" d="M18.83,32.09c-.13,0-.23,.1-.23,.23s.1,.23,.23,.23,.23-.1,.23-.23-.1-.23-.23-.23"/>
                  <path id="use5944-23" data-name="use5944" class="cls-2" d="M19.44,31.45c-.13,0-.23,.1-.23,.23s.1,.23,.23,.23,.23-.1,.23-.23-.1-.23-.23-.23"/>
                  <path id="use5944-24" data-name="use5944" class="cls-2" d="M20.09,30.84c-.13,0-.23,.1-.23,.23s.1,.23,.23,.23,.23-.1,.23-.23-.1-.23-.23-.23"/>
                  <path id="use6320" class="cls-13" d="M18.83,30.83c-.13,0-.23,.1-.23,.23s.1,.23,.23,.23,.23-.1,.23-.23-.1-.23-.23-.23"/>
                  <path id="use5944-25" data-name="use5944" class="cls-2" d="M18.83,30.83c-.12,0-.23,.1-.23,.23s.1,.23,.23,.23,.23-.1,.23-.23-.1-.23-.23-.23"/>
                </g>
              </g>
              <g>
                <polygon class="cls-5" points="16.85 24.64 16.74 23.69 14.42 23.69 14.32 24.64 16.85 24.64"/>
                <path class="cls-5" d="M16.89,24.88c.05,0,.1-.05,.1-.12,0-.07-.04-.12-.1-.12h-2.61c-.05,0-.1,.05-.1,.12,0,.06,.05,.12,.1,.12h2.61Z"/>
                <path class="cls-5" d="M16.83,23.48c.05,0,.1-.05,.1-.11s-.04-.11-.1-.11h-2.5c-.05,0-.1,.05-.1,.11s.04,.11,.1,.11h2.5Z"/>
                <path class="cls-5" d="M16.77,23.69c.05,0,.09-.05,.09-.11s-.04-.11-.09-.11h-2.39s-.09,.05-.09,.11,.04,.11,.09,.11h2.39Z"/>
                <path class="cls-5" d="M15.16,21.85h0v.31s.04,.08,.09,.08h.68s.08-.03,.08-.08v-.31h-.2v.14h-.14v-.13h-.2s0,.13,0,.13h-.14v-.13h-.19Z"/>
                <polygon class="cls-5" points="15.87 22.24 15.29 22.24 15.25 23.26 15.91 23.26 15.87 22.24"/>
                <polygon class="cls-5" points="16.09 22.73 16.08 23.26 16.71 23.26 16.69 22.73 16.09 22.73"/>
                <path class="cls-5" d="M15.98,22.34h0v.3s.04,.08,.09,.08h.66s.09-.03,.09-.08v-.31h-.19v.14h-.13v-.14h-.19s0,.14,0,.14h-.13v-.13h-.18Z"/>
                <path class="cls-5" d="M14.35,22.34v.3s.04,.08,.08,.08h.67s.08-.03,.08-.08v-.31h-.19v.14h-.14v-.14h-.19v.14h-.14v-.13h-.18Z"/>
                <polygon class="cls-5" points="14.44 23.26 15.08 23.26 15.06 22.73 14.46 22.73 14.44 23.26"/>
                <path class="cls-12" d="M15.51,22.58v.24h.13v-.24c0-.1-.14-.1-.13,0Z"/>
                <path class="cls-12" d="M16.33,22.93v.18h.13v-.18c0-.1-.13-.09-.13,0Z"/>
                <path class="cls-12" d="M14.69,22.93v.18h.13v-.18c0-.1-.13-.09-.13,0Z"/>
                <path class="cls-5" d="M15.57,23.7s-.62,.13-.63,.94h1.26c-.01-.76-.62-.94-.63-.94Z"/>
                <path class="cls-5" d="M15.57,23.99s-.35,.14-.35,.65h.71c0-.5-.36-.65-.36-.65Z"/>
              </g>
              <g>
                <polygon class="cls-5" points="23.85 24.64 23.74 23.69 21.42 23.69 21.32 24.64 23.85 24.64"/>
                <path class="cls-5" d="M23.88,24.88c.05,0,.1-.05,.1-.12,0-.07-.04-.12-.1-.12h-2.61c-.05,0-.1,.05-.1,.12,0,.06,.05,.12,.1,.12h2.61Z"/>
                <path class="cls-5" d="M23.83,23.48c.05,0,.1-.05,.1-.11s-.04-.11-.1-.11h-2.5c-.05,0-.1,.05-.1,.11s.04,.11,.1,.11h2.5Z"/>
                <path class="cls-5" d="M23.77,23.69c.05,0,.09-.05,.09-.11s-.04-.11-.09-.11h-2.39s-.09,.05-.09,.11,.04,.11,.09,.11h2.39Z"/>
                <path class="cls-5" d="M22.16,21.85h0v.31s.04,.08,.09,.08h.68s.08-.03,.08-.08v-.31h-.19v.14h-.14v-.13h-.2s0,.13,0,.13h-.14v-.13h-.19Z"/>
                <polygon class="cls-5" points="22.87 22.24 22.29 22.24 22.25 23.26 22.91 23.26 22.87 22.24"/>
                <polygon class="cls-5" points="23.09 22.73 23.08 23.26 23.71 23.26 23.69 22.73 23.09 22.73"/>
                <path class="cls-5" d="M22.98,22.34h0v.3s.04,.08,.09,.08h.66s.09-.03,.09-.08v-.31h-.19v.14h-.13v-.14h-.19s0,.14,0,.14h-.13v-.13h-.18Z"/>
                <path class="cls-5" d="M21.35,22.34v.3s.04,.08,.08,.08h.67s.08-.03,.08-.08v-.31h-.19v.14h-.14v-.14h-.19v.14h-.14v-.13h-.18Z"/>
                <polygon class="cls-5" points="21.44 23.26 22.08 23.26 22.06 22.73 21.46 22.73 21.44 23.26"/>
                <path class="cls-12" d="M22.51,22.58v.24h.13v-.24c0-.1-.14-.1-.13,0Z"/>
                <path class="cls-12" d="M23.33,22.93v.18h.13v-.18c0-.1-.13-.09-.13,0Z"/>
                <path class="cls-12" d="M21.69,22.93v.18h.13v-.18c0-.1-.13-.09-.13,0Z"/>
                <path class="cls-5" d="M22.57,23.7s-.62,.13-.63,.94h1.26c-.01-.76-.62-.94-.63-.94Z"/>
                <path class="cls-5" d="M22.57,23.99s-.35,.14-.35,.65h.71c0-.5-.36-.65-.36-.65Z"/>
              </g>
              <g>
                <polygon class="cls-5" points="16.86 31.77 16.75 30.82 14.43 30.82 14.33 31.77 16.86 31.77"/>
                <path class="cls-5" d="M16.89,32.01c.05,0,.1-.05,.1-.12,0-.07-.04-.12-.1-.12h-2.61c-.05,0-.1,.05-.1,.12s.05,.12,.1,.12h2.61Z"/>
                <path class="cls-5" d="M16.84,30.61c.05,0,.1-.05,.1-.11s-.04-.11-.1-.11h-2.5c-.05,0-.1,.05-.1,.11s.04,.11,.1,.11h2.5Z"/>
                <path class="cls-5" d="M16.78,30.82c.05,0,.09-.05,.09-.11s-.04-.11-.09-.11h-2.39s-.09,.05-.09,.11,.04,.11,.09,.11h2.39Z"/>
                <path class="cls-5" d="M15.16,28.98h0v.31s.04,.08,.09,.08h.68s.08-.03,.08-.08v-.31h-.19v.14h-.14v-.13h-.2s0,.13,0,.13h-.14v-.13h-.19Z"/>
                <polygon class="cls-5" points="15.87 29.37 15.3 29.37 15.26 30.39 15.92 30.39 15.87 29.37"/>
                <polygon class="cls-5" points="16.1 29.86 16.08 30.39 16.72 30.39 16.7 29.86 16.1 29.86"/>
                <path class="cls-5" d="M15.99,29.47h0v.3s.04,.08,.09,.08h.66s.09-.03,.09-.08v-.31h-.19v.14h-.13v-.14h-.19s0,.14,0,.14h-.13v-.13h-.18Z"/>
                <path class="cls-5" d="M14.35,29.47v.3s.04,.08,.08,.08h.67s.08-.03,.08-.08v-.31h-.19v.14h-.14v-.14h-.19v.14h-.14v-.13h-.18Z"/>
                <polygon class="cls-5" points="14.45 30.39 15.09 30.39 15.07 29.86 14.47 29.86 14.45 30.39"/>
                <path class="cls-12" d="M15.52,29.71v.24h.13v-.24c0-.1-.14-.1-.13,0Z"/>
                <path class="cls-12" d="M16.34,30.06v.18h.13v-.18c0-.1-.13-.09-.13,0Z"/>
                <path class="cls-12" d="M14.7,30.06v.18h.13v-.18c0-.1-.13-.09-.13,0Z"/>
                <path class="cls-5" d="M15.58,30.83s-.62,.13-.63,.94h1.26c-.01-.76-.62-.94-.63-.94Z"/>
                <path class="cls-5" d="M15.58,31.12s-.35,.14-.35,.65h.71c0-.5-.36-.65-.36-.65Z"/>
              </g>
              <g>
                <polygon class="cls-5" points="19.03 37.86 18.27 37.27 16.64 38.91 17.24 39.65 19.03 37.86"/>
                <path class="cls-5" d="M19.22,38s.03-.11-.01-.15c-.05-.05-.12-.06-.16-.02l-1.84,1.85s-.04,.11,.01,.16c.05,.05,.12,.05,.16,.01l1.84-1.85Z"/>
                <path class="cls-5" d="M18.19,37.05s.03-.1-.01-.14c-.04-.04-.11-.05-.14-.01l-1.76,1.77s-.04,.1,0,.14c.04,.04,.1,.05,.14,0l1.77-1.77Z"/>
                <path class="cls-5" d="M18.3,37.24s.03-.1-.01-.14c-.04-.04-.1-.05-.14,0l-1.69,1.69s-.03,.1,.01,.14c.04,.04,.1,.05,.14,.01l1.69-1.69Z"/>
                <path class="cls-5" d="M15.86,37.09h0l.22,.22s.09,.03,.12,0l.48-.48s.04-.08,0-.12l-.22-.22-.14,.14,.1,.1-.1,.1-.09-.09-.14,.14,.09,.1-.1,.1-.09-.09-.13,.13Z"/>
                <polygon class="cls-5" points="16.63 36.86 16.22 37.27 16.92 38.02 17.39 37.55 16.63 36.86"/>
                <polygon class="cls-5" points="17.14 37.04 17.51 37.43 17.95 36.98 17.56 36.62 17.14 37.04"/>
                <path class="cls-5" d="M16.78,36.85h0l.21,.21s.09,.03,.12,0l.47-.47s.04-.08,0-.12l-.22-.22-.13,.14,.1,.1-.1,.09-.1-.1-.13,.13,.1,.1-.09,.1-.09-.09-.13,.13Z"/>
                <path class="cls-5" d="M15.63,38.01l.22,.21s.09,.03,.12,0l.47-.47s.04-.08,0-.12l-.22-.22-.14,.14,.1,.1-.09,.1-.1-.1-.13,.13,.1,.1-.1,.1-.09-.09-.13,.13Z"/>
                <polygon class="cls-5" points="16.35 38.59 16.8 38.14 16.41 37.78 15.99 38.2 16.35 38.59"/>
                <path class="cls-12" d="M16.62,37.35l.17,.17,.09-.09-.17-.17c-.07-.07-.17,.03-.09,.09Z"/>
                <path class="cls-12" d="M17.45,37.01l.13,.13,.09-.09-.13-.13c-.06-.07-.16,.03-.09,.09Z"/>
                <path class="cls-12" d="M16.29,38.18l.13,.13,.09-.09-.13-.13c-.06-.07-.16,.03-.09,.09Z"/>
                <path class="cls-5" d="M17.46,38.1s-.34,.53,.22,1.11l.89-.89c-.55-.53-1.1-.23-1.11-.22Z"/>
                <path class="cls-5" d="M17.66,38.3s-.14,.35,.22,.71l.5-.5c-.36-.36-.72-.2-.72-.2Z"/>
              </g>
              <g>
                <polygon class="cls-5" points="28.3 24.64 28.42 23.69 30.73 23.69 30.84 24.64 28.3 24.64"/>
                <path class="cls-5" d="M28.27,24.88c-.05,0-.1-.05-.1-.12,0-.07,.04-.12,.1-.12h2.61c.05,0,.1,.05,.1,.12,0,.06-.05,.12-.1,.12h-2.61Z"/>
                <path class="cls-5" d="M28.32,23.48c-.05,0-.1-.05-.1-.11s.04-.11,.1-.11h2.5c.05,0,.1,.05,.1,.11s-.04,.11-.1,.11h-2.5Z"/>
                <path class="cls-5" d="M28.38,23.69c-.05,0-.09-.05-.09-.11s.04-.11,.09-.11h2.39s.09,.05,.09,.11-.04,.11-.09,.11h-2.39Z"/>
                <path class="cls-5" d="M30,21.85h0v.31s-.04,.08-.09,.08h-.68s-.08-.03-.08-.08v-.31h.19v.14h.14v-.13h.2s0,.13,0,.13h.14v-.13h.19Z"/>
                <polygon class="cls-5" points="29.29 22.24 29.86 22.24 29.91 23.26 29.25 23.26 29.29 22.24"/>
                <polygon class="cls-5" points="29.06 22.73 29.08 23.26 28.44 23.26 28.46 22.73 29.06 22.73"/>
                <path class="cls-5" d="M29.18,22.34h0v.3s-.04,.08-.09,.08h-.66s-.09-.03-.09-.08v-.31h.19v.14h.13v-.14h.19s0,.14,0,.14h.13v-.13h.18Z"/>
                <path class="cls-5" d="M30.81,22.34v.3s-.04,.08-.08,.08h-.67s-.08-.03-.08-.08v-.31h.19v.14h.14v-.14h.19v.14h.14v-.13h.18Z"/>
                <polygon class="cls-5" points="30.71 23.26 30.08 23.26 30.1 22.73 30.69 22.73 30.71 23.26"/>
                <path class="cls-12" d="M29.64,22.58v.24h-.13v-.24c0-.1,.14-.1,.13,0Z"/>
                <path class="cls-12" d="M28.82,22.93v.18h-.13v-.18c0-.1,.13-.09,.13,0Z"/>
                <path class="cls-12" d="M30.46,22.93v.18h-.13v-.18c0-.1,.13-.09,.13,0Z"/>
                <path class="cls-5" d="M29.58,23.7s.62,.13,.63,.94h-1.26c.01-.76,.62-.94,.63-.94Z"/>
                <path class="cls-5" d="M29.58,23.99s.35,.14,.35,.65h-.71c0-.5,.36-.65,.36-.65Z"/>
              </g>
              <g>
                <polygon class="cls-5" points="28.3 31.77 28.41 30.82 30.73 30.82 30.83 31.77 28.3 31.77"/>
                <path class="cls-5" d="M28.26,32.01c-.05,0-.1-.05-.1-.12,0-.07,.04-.12,.1-.12h2.61c.05,0,.1,.05,.1,.12s-.05,.12-.1,.12h-2.61Z"/>
                <path class="cls-5" d="M28.32,30.61c-.05,0-.1-.05-.1-.11s.04-.11,.1-.11h2.5c.05,0,.1,.05,.1,.11s-.04,.11-.1,.11h-2.5Z"/>
                <path class="cls-5" d="M28.38,30.82c-.05,0-.09-.05-.09-.11s.04-.11,.09-.11h2.39s.09,.05,.09,.11-.04,.11-.09,.11h-2.39Z"/>
                <path class="cls-5" d="M29.99,28.98h0v.31s-.04,.08-.09,.08h-.68s-.08-.03-.08-.08v-.31h.19v.14h.14v-.13h.2s0,.13,0,.13h.14v-.13h.19Z"/>
                <polygon class="cls-5" points="29.28 29.37 29.86 29.37 29.9 30.39 29.24 30.39 29.28 29.37"/>
                <polygon class="cls-5" points="29.05 29.86 29.07 30.39 28.44 30.39 28.45 29.86 29.05 29.86"/>
                <path class="cls-5" d="M29.17,29.47h0v.3s-.04,.08-.09,.08h-.66s-.09-.03-.09-.08v-.31h.19v.14h.13v-.14h.19s0,.14,0,.14h.13v-.13h.18Z"/>
                <path class="cls-5" d="M30.8,29.47v.3s-.04,.08-.08,.08h-.67s-.08-.03-.08-.08v-.31h.19v.14h.14v-.14h.19v.14h.14v-.13h.18Z"/>
                <polygon class="cls-5" points="30.7 30.39 30.07 30.39 30.09 29.86 30.69 29.86 30.7 30.39"/>
                <path class="cls-12" d="M29.64,29.71v.24h-.13v-.24c0-.1,.14-.1,.13,0Z"/>
                <path class="cls-12" d="M28.82,30.06v.18h-.13v-.18c0-.1,.13-.09,.13,0Z"/>
                <path class="cls-12" d="M30.45,30.06v.18h-.13v-.18c0-.1,.13-.09,.13,0Z"/>
                <path class="cls-5" d="M29.57,30.83s.62,.13,.63,.94h-1.26c.01-.76,.62-.94,.63-.94Z"/>
                <path class="cls-5" d="M29.57,31.12s.35,.14,.35,.65h-.71c0-.5,.36-.65,.36-.65Z"/>
              </g>
              <g>
                <polygon class="cls-5" points="26.13 37.86 26.88 37.27 28.51 38.91 27.92 39.65 26.13 37.86"/>
                <path class="cls-5" d="M25.94,38s-.03-.11,.01-.15c.05-.05,.12-.06,.16-.02l1.84,1.85s.04,.11-.01,.16c-.05,.05-.12,.05-.16,.01l-1.84-1.85Z"/>
                <path class="cls-5" d="M26.96,37.05s-.03-.1,.01-.14c.04-.04,.11-.05,.14-.01l1.77,1.77s.03,.1-.01,.14c-.04,.04-.1,.05-.14,0l-1.77-1.77Z"/>
                <path class="cls-5" d="M26.86,37.24s-.03-.1,.01-.14c.04-.04,.1-.05,.14,0l1.69,1.69s.03,.1-.01,.14c-.04,.04-.1,.05-.14,.01l-1.69-1.69Z"/>
                <path class="cls-5" d="M29.3,37.09h0l-.22,.22s-.09,.03-.12,0l-.48-.48s-.04-.08,0-.12l.22-.22,.14,.14-.1,.1,.1,.1,.09-.09,.14,.14-.09,.1,.1,.1,.09-.09,.13,.13Z"/>
                <polygon class="cls-5" points="28.52 36.86 28.93 37.27 28.23 38.02 27.77 37.55 28.52 36.86"/>
                <polygon class="cls-5" points="28.02 37.04 27.65 37.43 27.2 36.98 27.6 36.62 28.02 37.04"/>
                <path class="cls-5" d="M28.37,36.85h0l-.21,.21s-.09,.03-.12,0l-.47-.47s-.04-.08,0-.12l.22-.22,.13,.14-.1,.1,.1,.09,.1-.1,.13,.13-.1,.1,.09,.1,.09-.09,.13,.13Z"/>
                <path class="cls-5" d="M29.53,38.01l-.22,.21s-.09,.03-.12,0l-.47-.47s-.04-.08,0-.12l.22-.22,.14,.14-.1,.1,.09,.1,.1-.1,.13,.13-.1,.1,.1,.1,.09-.09,.13,.13Z"/>
                <polygon class="cls-5" points="28.8 38.59 28.35 38.14 28.75 37.78 29.17 38.2 28.8 38.59"/>
                <path class="cls-12" d="M28.53,37.35l-.17,.17-.09-.09,.17-.17c.07-.07,.17,.03,.09,.09Z"/>
                <path class="cls-12" d="M27.71,37.01l-.13,.13-.09-.09,.13-.13c.06-.07,.16,.03,.09,.09Z"/>
                <path class="cls-12" d="M28.87,38.18l-.13,.13-.09-.09,.13-.13c.06-.07,.15,.03,.09,.09Z"/>
                <path class="cls-5" d="M27.7,38.1s.34,.53-.22,1.11l-.88-.89c.55-.53,1.1-.23,1.11-.22Z"/>
                <path class="cls-5" d="M27.49,38.3s.14,.35-.22,.71l-.5-.5c.36-.36,.72-.2,.72-.2Z"/>
              </g>
            </g>
          </g>
        </g>
        <circle class="cls-8" cx="31.71" cy="31.71" r="30.79" transform="translate(-9.72 14.55) rotate(-22.5)"/>
      </g>
    </g>
  </g>
</svg>